<svg width="156" height="42" viewBox="0 0 156 42" fill="none" xmlns="http://www.w3.org/2000/svg">
<path d="M151.846 7.16211H150.568L150.557 6.41211H151.746C151.91 6.4082 152.062 6.37891 152.203 6.32422C152.348 6.26953 152.463 6.19141 152.549 6.08984C152.639 5.98438 152.684 5.85547 152.684 5.70312C152.684 5.50781 152.65 5.35352 152.584 5.24023C152.518 5.12695 152.406 5.04492 152.25 4.99414C152.098 4.94336 151.889 4.91797 151.623 4.91797H150.826V9.14258H150V4.17383H151.623C152.01 4.17383 152.344 4.22852 152.625 4.33789C152.906 4.44727 153.123 4.61328 153.275 4.83594C153.428 5.05469 153.504 5.33203 153.504 5.66797C153.504 5.87891 153.455 6.06836 153.357 6.23633C153.26 6.4043 153.117 6.54883 152.93 6.66992C152.742 6.79102 152.514 6.88867 152.244 6.96289C152.232 6.96289 152.219 6.97656 152.203 7.00391C152.191 7.02734 152.18 7.03906 152.168 7.03906C152.102 7.07812 152.059 7.10742 152.039 7.12695C152.023 7.14258 152.006 7.15234 151.986 7.15625C151.971 7.16016 151.924 7.16211 151.846 7.16211ZM151.787 7.16211L151.904 6.63477C152.51 6.63477 152.922 6.76367 153.141 7.02148C153.363 7.27539 153.475 7.59766 153.475 7.98828V8.30469C153.475 8.44922 153.482 8.58789 153.498 8.7207C153.514 8.84961 153.539 8.95898 153.574 9.04883V9.14258H152.725C152.686 9.04102 152.662 8.89648 152.654 8.70898C152.65 8.52148 152.648 8.38477 152.648 8.29883V7.99414C152.648 7.70898 152.582 7.5 152.449 7.36719C152.32 7.23047 152.1 7.16211 151.787 7.16211ZM148.207 6.72852C148.207 7.24805 148.297 7.73242 148.477 8.18164C148.656 8.63086 148.906 9.02344 149.227 9.35938C149.547 9.69531 149.918 9.95703 150.34 10.1445C150.762 10.332 151.213 10.4258 151.693 10.4258C152.174 10.4258 152.623 10.332 153.041 10.1445C153.463 9.95703 153.832 9.69531 154.148 9.35938C154.469 9.02344 154.719 8.63086 154.898 8.18164C155.078 7.73242 155.168 7.24805 155.168 6.72852C155.168 6.20508 155.078 5.7207 154.898 5.27539C154.719 4.83008 154.469 4.44141 154.148 4.10938C153.832 3.77344 153.463 3.51367 153.041 3.33008C152.623 3.14258 152.174 3.04883 151.693 3.04883C151.213 3.04883 150.762 3.14258 150.34 3.33008C149.918 3.51367 149.547 3.77344 149.227 4.10938C148.906 4.44141 148.656 4.83008 148.477 5.27539C148.297 5.7207 148.207 6.20508 148.207 6.72852ZM147.533 6.72852C147.533 6.10742 147.641 5.53125 147.855 5C148.07 4.46875 148.369 4.00586 148.752 3.61133C149.135 3.21289 149.576 2.9043 150.076 2.68555C150.58 2.46289 151.119 2.35156 151.693 2.35156C152.268 2.35156 152.805 2.46289 153.305 2.68555C153.809 2.9043 154.25 3.21289 154.629 3.61133C155.012 4.00586 155.311 4.46875 155.525 5C155.74 5.53125 155.848 6.10742 155.848 6.72852C155.848 7.34961 155.74 7.92578 155.525 8.45703C155.311 8.98828 155.012 9.45508 154.629 9.85742C154.25 10.2559 153.809 10.5664 153.305 10.7891C152.805 11.0117 152.268 11.123 151.693 11.123C151.119 11.123 150.58 11.0117 150.076 10.7891C149.576 10.5664 149.135 10.2559 148.752 9.85742C148.369 9.45508 148.07 8.98828 147.855 8.45703C147.641 7.92578 147.533 7.34961 147.533 6.72852Z" fill="white"/>
<path d="M7.01367 7.40625V33H2.60156V7.40625H7.01367ZM17.4551 18.6035V22.1016H5.88867V18.6035H17.4551ZM18.9141 7.40625V10.9219H5.88867V7.40625H18.9141ZM32.1328 29.1855V20.1152C32.1328 19.4355 32.0098 18.8496 31.7637 18.3574C31.5176 17.8652 31.1426 17.4844 30.6387 17.2148C30.1465 16.9453 29.5254 16.8105 28.7754 16.8105C28.084 16.8105 27.4863 16.9277 26.9824 17.1621C26.4785 17.3965 26.0859 17.7129 25.8047 18.1113C25.5234 18.5098 25.3828 18.9609 25.3828 19.4648H21.1641C21.1641 18.7148 21.3457 17.9883 21.709 17.2852C22.0723 16.582 22.5996 15.9551 23.291 15.4043C23.9824 14.8535 24.8086 14.4199 25.7695 14.1035C26.7305 13.7871 27.8086 13.6289 29.0039 13.6289C30.4336 13.6289 31.6992 13.8691 32.8008 14.3496C33.9141 14.8301 34.7871 15.5566 35.4199 16.5293C36.0645 17.4902 36.3867 18.6973 36.3867 20.1504V28.6055C36.3867 29.4727 36.4453 30.252 36.5625 30.9434C36.6914 31.623 36.873 32.2148 37.1074 32.7188V33H32.7656C32.5664 32.543 32.4082 31.9629 32.291 31.2598C32.1855 30.5449 32.1328 29.8535 32.1328 29.1855ZM32.748 21.4336L32.7832 24.0527H29.7422C28.957 24.0527 28.2656 24.1289 27.668 24.2812C27.0703 24.4219 26.5723 24.6328 26.1738 24.9141C25.7754 25.1953 25.4766 25.5352 25.2773 25.9336C25.0781 26.332 24.9785 26.7832 24.9785 27.2871C24.9785 27.791 25.0957 28.2539 25.3301 28.6758C25.5645 29.0859 25.9043 29.4082 26.3496 29.6426C26.8066 29.877 27.3574 29.9941 28.002 29.9941C28.8691 29.9941 29.625 29.8184 30.2695 29.4668C30.9258 29.1035 31.4414 28.6641 31.8164 28.1484C32.1914 27.6211 32.3906 27.123 32.4141 26.6543L33.7852 28.5352C33.6445 29.0156 33.4043 29.5312 33.0645 30.082C32.7246 30.6328 32.2793 31.1602 31.7285 31.6641C31.1895 32.1562 30.5391 32.5605 29.7773 32.877C29.0273 33.1934 28.1602 33.3516 27.1758 33.3516C25.9336 33.3516 24.8262 33.1055 23.8535 32.6133C22.8809 32.1094 22.1191 31.4355 21.5684 30.5918C21.0176 29.7363 20.7422 28.7695 20.7422 27.6914C20.7422 26.6836 20.9297 25.793 21.3047 25.0195C21.6914 24.2344 22.2539 23.5781 22.9922 23.0508C23.7422 22.5234 24.6562 22.125 25.7344 21.8555C26.8125 21.5742 28.043 21.4336 29.4258 21.4336H32.748ZM40.834 6H45.0703V28.9395L44.666 33H40.834V6ZM57.4805 23.3145V23.6836C57.4805 25.0898 57.3223 26.3848 57.0059 27.5684C56.7012 28.7402 56.2324 29.7598 55.5996 30.627C54.9785 31.4941 54.2051 32.168 53.2793 32.6484C52.3652 33.1172 51.3047 33.3516 50.0977 33.3516C48.9141 33.3516 47.8828 33.1289 47.0039 32.6836C46.125 32.2383 45.3867 31.6055 44.7891 30.7852C44.2031 29.9648 43.7285 28.9863 43.3652 27.8496C43.002 26.7129 42.7441 25.459 42.5918 24.0879V22.9102C42.7441 21.5273 43.002 20.2734 43.3652 19.1484C43.7285 18.0117 44.2031 17.0332 44.7891 16.2129C45.3867 15.3809 46.1191 14.7422 46.9863 14.2969C47.8652 13.8516 48.8906 13.6289 50.0625 13.6289C51.2812 13.6289 52.3535 13.8633 53.2793 14.332C54.2168 14.8008 54.9961 15.4688 55.6172 16.3359C56.2383 17.1914 56.7012 18.2109 57.0059 19.3945C57.3223 20.5781 57.4805 21.8848 57.4805 23.3145ZM53.2441 23.6836V23.3145C53.2441 22.459 53.1738 21.6562 53.0332 20.9062C52.8926 20.1445 52.6582 19.4766 52.3301 18.9023C52.0137 18.3281 51.5801 17.877 51.0293 17.5488C50.4902 17.209 49.8164 17.0391 49.0078 17.0391C48.2578 17.0391 47.6133 17.168 47.0742 17.4258C46.5352 17.6836 46.084 18.0352 45.7207 18.4805C45.3574 18.9258 45.0703 19.4414 44.8594 20.0273C44.6602 20.6133 44.5254 21.2461 44.4551 21.9258V25.1074C44.5605 25.9863 44.7832 26.7949 45.123 27.5332C45.4746 28.2598 45.9668 28.8457 46.5996 29.291C47.2324 29.7246 48.0469 29.9414 49.043 29.9414C49.8281 29.9414 50.4902 29.7832 51.0293 29.4668C51.5684 29.1504 51.9961 28.7109 52.3125 28.1484C52.6406 27.5742 52.875 26.9062 53.0156 26.1445C53.168 25.3828 53.2441 24.5625 53.2441 23.6836ZM70.7168 7.40625V33H68.5723V7.40625H70.7168ZM79.4883 7.40625V9.26953H59.8184V7.40625H79.4883ZM80.2441 23.7891V23.209C80.2441 21.8262 80.4434 20.5488 80.8418 19.377C81.2402 18.2051 81.8086 17.1914 82.5469 16.3359C83.2969 15.4805 84.1934 14.8184 85.2363 14.3496C86.2793 13.8691 87.4395 13.6289 88.7168 13.6289C90.0059 13.6289 91.1719 13.8691 92.2148 14.3496C93.2578 14.8184 94.1543 15.4805 94.9043 16.3359C95.6543 17.1914 96.2285 18.2051 96.627 19.377C97.0254 20.5488 97.2246 21.8262 97.2246 23.209V23.7891C97.2246 25.1719 97.0254 26.4492 96.627 27.6211C96.2285 28.7812 95.6543 29.7891 94.9043 30.6445C94.166 31.5 93.2754 32.168 92.2324 32.6484C91.1895 33.1172 90.0293 33.3516 88.752 33.3516C87.4629 33.3516 86.2969 33.1172 85.2539 32.6484C84.2109 32.168 83.3145 31.5 82.5645 30.6445C81.8145 29.7891 81.2402 28.7812 80.8418 27.6211C80.4434 26.4492 80.2441 25.1719 80.2441 23.7891ZM82.3359 23.209V23.7891C82.3359 24.832 82.4766 25.8223 82.7578 26.7598C83.0391 27.6855 83.4492 28.5117 83.9883 29.2383C84.5273 29.9531 85.1953 30.5156 85.9922 30.9258C86.7891 31.3359 87.709 31.541 88.752 31.541C89.7832 31.541 90.6914 31.3359 91.4766 30.9258C92.2734 30.5156 92.9414 29.9531 93.4805 29.2383C94.0195 28.5117 94.4238 27.6855 94.6934 26.7598C94.9746 25.8223 95.1152 24.832 95.1152 23.7891V23.209C95.1152 22.1777 94.9746 21.1992 94.6934 20.2734C94.4238 19.3477 94.0137 18.5215 93.4629 17.7949C92.9238 17.0684 92.2559 16.4941 91.459 16.0723C90.6621 15.6504 89.748 15.4395 88.7168 15.4395C87.6855 15.4395 86.7715 15.6504 85.9746 16.0723C85.1895 16.4941 84.5215 17.0684 83.9707 17.7949C83.4316 18.5215 83.0215 19.3477 82.7402 20.2734C82.4707 21.1992 82.3359 22.1777 82.3359 23.209ZM106.857 28.5527L111.445 13.9805H112.922L112.043 17.9004L107.244 33H105.768L106.857 28.5527ZM102.094 13.9805L106.119 28.6406L106.98 33H105.451L99.9316 13.9805H102.094ZM118.635 28.5879L122.555 13.9805H124.717L119.197 33H117.686L118.635 28.5879ZM113.221 13.9805L117.738 28.4297L118.881 33H117.404L112.5 17.8828L111.674 13.9805H113.221ZM130.852 18.041V33H128.76V13.9805H130.764L130.852 18.041ZM130.377 22.3125L129.445 21.7852C129.516 20.6602 129.744 19.6055 130.131 18.6211C130.518 17.6367 131.039 16.7695 131.695 16.0195C132.363 15.2695 133.143 14.6836 134.033 14.2617C134.936 13.8398 135.932 13.6289 137.021 13.6289C137.971 13.6289 138.82 13.7578 139.57 14.0156C140.32 14.2734 140.959 14.6836 141.486 15.2461C142.014 15.8086 142.412 16.5293 142.682 17.4082C142.963 18.2871 143.104 19.3594 143.104 20.625V33H140.994V20.6074C140.994 19.2949 140.812 18.2695 140.449 17.5312C140.086 16.7812 139.57 16.248 138.902 15.9316C138.234 15.6152 137.443 15.457 136.529 15.457C135.521 15.457 134.637 15.6797 133.875 16.125C133.125 16.5586 132.492 17.127 131.977 17.8301C131.473 18.5215 131.086 19.2656 130.816 20.0625C130.547 20.8477 130.4 21.5977 130.377 22.3125Z" fill="white"/>
</svg>
